<?xml version="1.0" standalone="no"?>
<!DOCTYPE svg PUBLIC "-//W3C//DTD SVG 20010904//EN"
 "http://www.w3.org/TR/2001/REC-SVG-20010904/DTD/svg10.dtd">
<svg version="1.0" xmlns="http://www.w3.org/2000/svg"
 width="1024.000000pt" height="1024.000000pt" viewBox="0 0 1024.000000 1024.000000"
 preserveAspectRatio="xMidYMid meet">

<g transform="translate(0.000000,1024.000000) scale(0.100000,-0.100000)"
fill="#000000" stroke="none">
<path d="M5091 5228 c11 -20 3 -42 -12 -33 -5 4 -9 0 -9 -8 0 -18 27 -30 35
-17 4 6 3 15 0 20 -3 6 -2 10 4 10 19 0 24 -23 8 -35 -10 -7 -17 -16 -17 -20
0 -4 6 -2 13 4 8 6 17 9 20 6 4 -3 5 -2 2 1 -8 12 16 44 33 44 16 -1 16 -1 0
-11 -18 -10 -25 -29 -10 -29 14 0 30 37 22 50 -7 12 -12 11 -28 -3 -18 -16
-20 -16 -38 5 -16 19 -16 21 -1 9 15 -12 20 -12 30 -1 9 10 9 11 0 6 -7 -4
-13 -3 -13 2 0 5 -11 12 -25 14 -21 4 -23 3 -14 -14z"/>
<path d="M5030 5175 c7 -8 20 -15 28 -15 12 0 13 -3 4 -12 -9 -9 -15 -9 -24 0
-7 7 -20 12 -31 12 -10 0 -16 4 -13 8 2 4 -4 8 -15 8 -26 0 -24 -3 12 -21 41
-22 30 -31 -13 -10 l-33 16 25 -21 c15 -13 33 -20 47 -17 27 5 30 -5 6 -24
-10 -7 -15 -9 -11 -5 4 5 -18 20 -50 33 -73 31 -92 35 -92 20 0 -7 -4 -6 -10
3 -5 8 -12 11 -16 7 -4 -4 1 -17 12 -29 12 -16 9 -14 -12 5 -16 15 -33 27 -37
27 -9 0 70 -157 81 -162 5 -1 28 -39 52 -83 24 -44 51 -91 60 -105 27 -39 62
-111 57 -117 -3 -3 -11 6 -18 19 -8 12 -19 32 -26 43 -7 11 -16 29 -22 41 -5
11 -22 41 -38 67 -28 43 -31 45 -48 29 -16 -16 -17 -16 -8 3 16 32 9 59 -30
118 -20 30 -37 59 -37 64 0 4 -9 19 -20 33 -17 21 -21 23 -30 10 -8 -11 -9 -9
-4 11 3 15 1 30 -5 33 -6 4 -11 0 -11 -10 0 -14 -3 -15 -12 -6 -26 26 -27 10
-3 -35 14 -27 25 -54 25 -60 0 -7 5 -13 11 -13 5 0 7 -5 3 -11 -7 -12 -50 50
-45 66 1 6 -1 6 -8 0 -7 -7 0 -32 24 -80 36 -73 115 -278 115 -298 0 -18 -24
32 -48 99 -46 131 -76 194 -91 194 -5 0 -26 27 -47 60 -36 57 -64 74 -79 50
-4 -6 -16 -8 -28 -4 -21 6 -20 5 3 -16 l25 -22 -26 7 c-15 4 -29 2 -33 -3 -3
-5 18 -12 46 -15 39 -5 58 -13 78 -34 l25 -27 -25 21 c-41 35 -145 40 -152 8
-4 -20 -23 -33 -34 -24 -7 5 -4 -6 5 -25 9 -19 21 -35 26 -34 28 2 45 -4 66
-23 20 -16 20 -18 4 -11 -36 17 -75 23 -75 12 0 -6 26 -63 57 -127 47 -96 70
-130 130 -192 76 -79 94 -113 22 -42 -43 43 -65 52 -28 12 15 -15 20 -31 17
-52 -3 -16 -1 -29 4 -29 4 0 7 -3 6 -7 -1 -5 4 -26 10 -47 6 -22 9 -43 6 -48
-12 -18 -22 -6 -28 35 -4 23 -13 51 -20 62 -7 11 -16 40 -20 64 -8 54 -35 113
-47 105 -5 -3 -6 3 -2 12 5 13 3 15 -8 9 -8 -4 -11 -5 -7 0 8 8 -73 175 -103
214 -24 30 -106 43 -91 14 5 -10 7 -24 5 -30 -3 -7 0 -13 6 -13 5 0 8 12 5 28
-3 19 -2 23 5 12 5 -8 8 -17 6 -21 -3 -3 17 -26 42 -49 26 -23 56 -54 67 -69
l20 -26 -27 24 c-27 24 -38 17 -14 -9 14 -15 -37 19 -103 68 -27 21 -46 30
-48 22 -3 -7 -10 -3 -19 9 -9 13 -22 19 -36 17 -12 -2 -28 1 -34 6 -7 6 -13 6
-13 2 0 -12 127 -127 206 -187 74 -55 87 -74 18 -25 -25 18 -55 38 -66 44 -10
6 -32 23 -47 38 -30 29 -46 25 -29 -8 7 -13 0 -9 -22 12 -43 43 -49 34 -12
-20 39 -57 75 -129 68 -136 -3 -3 -13 12 -22 34 -9 21 -36 70 -61 108 -34 52
-47 66 -54 55 -5 -8 -6 -23 -3 -34 5 -20 5 -20 -10 -1 -9 11 -16 25 -16 32 0
7 -4 15 -9 19 -6 3 -6 -7 0 -27 12 -43 12 -71 -1 -63 -5 3 -10 -1 -10 -11 0
-12 4 -14 13 -7 6 6 23 13 37 16 24 6 24 6 5 -9 -11 -8 -18 -22 -17 -32 3 -14
1 -14 -12 -3 -14 12 -16 12 -11 0 3 -9 -1 -15 -12 -15 -10 -1 -27 -5 -37 -9
-15 -7 -17 -5 -11 6 5 8 5 11 -1 6 -30 -27 4 -59 58 -55 40 3 43 1 45 -22 3
-25 3 -25 -7 -2 -10 23 -25 29 -35 12 -3 -5 -23 -10 -43 -11 -27 0 -32 -2 -18
-8 16 -6 13 -10 -21 -24 -52 -20 -66 -39 -21 -26 51 14 57 10 13 -11 -28 -14
-34 -20 -20 -20 12 -1 4 -7 -20 -15 l-40 -13 60 -2 60 -2 -65 -12 c-88 -16
-110 -30 -110 -66 0 -22 5 -29 22 -32 22 -3 21 -4 -6 -22 -24 -15 -30 -16 -38
-5 -8 11 -9 11 -5 -1 2 -8 -3 -24 -12 -34 -13 -16 -13 -18 -1 -12 8 4 4 -2
-10 -13 -16 -13 -20 -21 -10 -21 11 0 11 -3 2 -12 -19 -19 -14 -30 11 -22 l22
7 -20 -24 c-11 -13 -26 -28 -33 -32 -20 -13 -3 -28 25 -21 17 5 24 3 20 -3 -4
-6 -21 -13 -38 -17 -26 -5 -29 -9 -20 -20 10 -11 8 -15 -6 -19 -16 -4 -16 -5
2 -6 16 -1 17 -3 6 -10 -11 -7 6 -15 57 -31 40 -12 75 -26 78 -31 7 -12 7 -12
-56 10 -52 18 -104 18 -115 1 -3 -5 5 -6 17 -3 17 3 19 2 10 -5 -11 -7 -10
-10 3 -16 9 -3 28 -6 41 -6 24 0 35 -20 12 -20 -19 -1 84 -40 105 -40 9 0 17
-4 17 -10 0 -15 -41 -12 -59 4 -23 20 -78 30 -87 15 -4 -7 0 -17 9 -24 9 -7
15 -14 12 -17 -3 -2 1 -5 8 -5 6 0 19 -3 27 -5 8 -3 12 -3 8 -1 -9 5 -11 33
-3 33 2 0 15 -5 29 -11 14 -7 40 -9 61 -5 30 6 35 10 30 27 -8 23 -2 24 31 3
22 -15 24 -15 18 0 -3 9 -2 16 4 16 6 0 12 -6 15 -12 2 -7 8 -9 13 -5 5 5 1
13 -9 19 -14 7 -17 17 -12 35 3 15 2 22 -4 19 -11 -7 -27 61 -17 71 3 4 17 -3
29 -16 13 -12 41 -30 62 -41 l37 -19 -18 22 c-11 12 -29 32 -41 44 -23 22 -30
43 -14 43 5 0 14 -7 21 -15 7 -8 17 -15 24 -15 6 0 -2 11 -17 25 -24 23 -35
45 -22 45 2 0 20 -14 40 -31 19 -17 35 -26 35 -20 0 6 -4 11 -10 11 -5 0 -13
12 -16 28 -4 15 -12 30 -18 34 -6 4 -7 10 -3 15 5 4 11 3 15 -2 10 -15 52 -49
52 -43 0 3 -9 15 -20 28 -11 13 -20 35 -20 49 0 19 3 22 9 12 5 -8 7 -20 4
-28 -6 -17 13 -17 21 0 3 6 4 3 3 -8 -1 -14 3 -19 16 -17 9 2 17 -2 17 -8 0
-5 14 -24 30 -42 17 -17 30 -27 30 -21 0 5 -6 15 -12 21 -10 10 -10 15 0 21
11 6 8 13 -11 27 -47 38 -53 69 -15 90 15 8 15 12 -3 49 l-19 40 24 -26 c13
-15 26 -45 30 -68 3 -22 10 -41 15 -41 5 0 12 -12 16 -27 3 -16 15 -39 26 -53
l20 -25 -7 25 c-3 14 -13 32 -20 41 -16 18 -19 79 -4 79 6 0 10 -4 10 -9 0 -5
20 -33 45 -62 25 -29 45 -60 45 -68 0 -9 5 -23 10 -31 8 -12 10 -9 7 10 -10
59 -20 90 -31 90 -6 0 -20 14 -30 31 -10 17 -29 41 -42 52 -13 11 -24 28 -24
36 0 9 3 12 8 6 4 -5 14 -10 22 -10 8 0 18 5 22 10 5 6 8 5 8 -2 0 -7 6 -13
14 -13 8 0 16 -10 18 -22 2 -15 9 -22 19 -20 10 1 21 -9 29 -28 12 -28 40 -42
40 -20 0 6 7 10 15 10 8 0 15 6 16 13 0 6 5 2 12 -11 8 -17 8 -25 0 -30 -8 -5
-7 -13 2 -26 13 -17 15 -17 30 -2 9 9 20 16 24 16 7 0 25 -58 38 -122 6 -33
-16 -40 -24 -8 -3 11 -7 20 -10 20 -7 0 -33 -28 -33 -35 0 -16 32 -35 59 -35
29 0 31 -2 31 -40 0 -39 -1 -40 -35 -40 -31 0 -35 -3 -35 -25 0 -28 -30 -95
-42 -95 -4 0 -8 -9 -8 -20 0 -11 -4 -20 -10 -20 -5 0 -10 -6 -10 -14 0 -8 -12
-17 -26 -20 -26 -7 -26 -7 -22 -91 4 -85 12 -110 27 -86 6 10 10 8 15 -5 4
-11 2 -20 -3 -22 -7 -2 -11 -36 -11 -83 0 -72 2 -79 20 -79 18 0 20 -7 20 -60
0 -53 -2 -60 -20 -60 -18 0 -20 -7 -20 -70 0 -63 2 -70 20 -70 13 0 20 7 20
20 0 13 7 20 20 20 11 0 20 -4 20 -10 0 -5 18 -10 40 -10 l40 0 0 -40 c0 -38
-2 -40 -30 -40 -23 0 -30 4 -30 20 0 11 -4 20 -10 20 -5 0 -10 -9 -10 -20 0
-13 -7 -20 -20 -20 -17 0 -20 -7 -20 -39 0 -30 4 -40 20 -44 15 -4 20 -14 20
-41 0 -29 4 -36 20 -36 11 0 20 -4 20 -10 0 -5 9 -10 20 -10 16 0 20 -7 20
-30 0 -23 4 -30 20 -30 17 0 20 -7 20 -40 l0 -40 80 0 c73 0 80 2 80 20 0 17
7 20 40 20 l40 0 0 40 0 40 110 0 110 0 0 76 c0 87 10 104 64 104 29 0 36 4
36 20 0 16 7 20 30 20 27 0 30 3 30 30 0 17 5 30 10 30 6 0 10 -9 10 -20 0
-11 5 -20 10 -20 6 0 10 13 10 29 0 16 6 32 13 35 10 5 10 7 0 12 -8 4 -13 27
-13 65 l0 59 70 0 c63 0 70 2 70 20 0 11 -4 20 -10 20 -5 0 -10 9 -10 20 0 22
15 27 23 8 4 -10 8 -9 16 2 8 11 13 12 19 4 4 -7 16 -14 27 -17 19 -5 19 -5
-2 -12 -23 -7 -33 -45 -13 -45 6 0 10 5 10 10 0 6 17 10 37 10 26 0 34 -3 26
-11 -5 -5 -20 -11 -32 -12 -25 -2 -26 -4 -6 -24 9 -8 39 -18 67 -22 28 -3 53
-11 55 -18 3 -8 -4 -10 -21 -7 -19 3 -26 0 -26 -11 0 -8 9 -15 20 -15 13 0 20
-7 20 -20 0 -11 6 -20 14 -20 8 0 18 -9 21 -20 3 -11 12 -20 19 -20 8 0 19
-13 26 -29 11 -27 50 -50 50 -30 0 5 6 9 14 9 9 0 12 -7 9 -21 -3 -11 -11 -18
-18 -16 -6 3 -12 -1 -12 -9 0 -8 4 -14 8 -14 5 0 27 -19 49 -41 42 -43 46 -44
118 -23 13 4 22 2 22 -5 0 -6 -11 -13 -25 -17 -14 -3 -25 -11 -25 -18 0 -6 27
-35 60 -65 40 -35 60 -61 60 -76 0 -15 9 -26 28 -34 16 -7 43 -32 60 -56 l30
-43 39 13 c21 8 37 19 35 24 -1 6 2 11 8 11 5 0 15 19 21 43 7 23 16 47 21 53
13 18 -3 96 -24 118 -10 11 -16 26 -14 33 3 7 0 13 -6 13 -6 0 -4 8 5 18 16
17 23 52 12 52 -3 0 -16 -9 -27 -20 -20 -18 -23 -18 -31 -5 -5 10 -4 21 2 29
19 23 2 47 -28 41 -16 -3 -20 -2 -10 2 21 11 63 46 72 60 6 9 1 10 -20 3 -15
-4 -41 -11 -57 -15 -23 -5 -27 -8 -15 -16 16 -10 15 -10 -24 -15 -25 -3 -23 1
23 37 53 42 61 52 33 42 -11 -4 -6 7 15 28 17 19 32 40 32 47 0 7 5 12 12 12
6 0 9 3 5 6 -3 3 -19 -3 -35 -15 -43 -30 -47 -26 -16 13 31 39 39 72 23 92 -6
8 -9 20 -6 29 7 17 -9 30 -18 15 -3 -5 -21 -9 -38 -9 -18 1 -24 3 -14 6 9 2
17 11 17 19 0 8 6 14 13 14 8 0 24 12 38 26 l24 26 -30 -7 c-21 -5 -26 -4 -16
3 16 11 24 42 12 42 -4 0 -18 -12 -32 -26 -13 -14 -33 -30 -44 -36 -11 -5 -5
2 12 17 29 23 31 28 19 41 -8 8 -22 11 -32 7 -11 -4 -15 -3 -11 4 4 6 4 13 0
16 -5 2 -2 2 5 1 6 -2 12 3 12 11 0 8 12 22 28 30 15 9 18 13 7 9 -27 -9 -121
-18 -115 -11 3 3 23 8 44 10 21 2 41 9 46 16 4 7 10 12 14 12 23 -3 30 0 16 9
-10 7 -11 10 -2 10 10 0 10 4 0 20 -8 12 -24 20 -43 21 l-30 1 31 7 c17 4 36
11 42 15 19 12 14 34 -10 42 -22 7 -22 7 -3 15 15 6 11 8 -20 10 l-40 2 35 6
c22 4 39 14 46 29 6 13 15 23 19 22 15 -3 17 10 1 16 -9 3 -14 10 -11 14 3 4
-7 11 -22 15 -19 4 -23 9 -14 15 18 10 -19 23 -42 15 -8 -4 -18 -2 -22 4 -4 7
0 8 11 4 11 -4 15 -3 11 4 -5 8 3 8 27 1 28 -9 37 -8 50 5 20 20 20 24 -1 30
-16 4 -16 5 -1 6 10 1 19 13 23 32 8 35 0 48 -17 31 -17 -17 -33 -15 -18 3 7
8 9 15 4 15 -5 0 -4 4 1 8 6 4 19 18 30 32 19 24 19 24 0 10 -17 -14 -17 -12
3 21 12 20 22 43 22 50 -1 10 -4 9 -11 -3 -8 -15 -13 -15 -23 -5 -8 6 -12 15
-9 20 2 4 -1 7 -7 7 -7 0 -10 -6 -7 -14 8 -20 -68 -87 -88 -80 -8 4 -15 2 -15
-4 0 -10 -149 -86 -156 -79 -3 2 22 16 54 29 32 15 66 37 75 52 10 14 15 26
11 26 -4 0 -1 7 6 15 18 22 -1 18 -30 -6 -17 -15 -19 -19 -7 -15 11 3 16 2 12
-4 -3 -6 -11 -10 -17 -10 -5 0 -24 -10 -41 -22 l-32 -23 33 43 c19 23 31 42
28 42 -4 0 -38 -16 -77 -36 -39 -19 -73 -34 -75 -32 -7 8 145 80 155 73 6 -3
11 -1 11 4 0 6 15 17 34 25 34 14 56 36 36 36 -6 0 -8 5 -4 13 5 8 2 8 -9 -2
-31 -24 -18 1 15 31 17 15 27 28 21 28 -6 0 -16 -7 -23 -15 -14 -17 -35 -21
-24 -4 3 6 20 20 38 31 25 16 26 18 7 13 -15 -5 -21 -3 -17 3 4 6 -2 8 -16 4
-18 -4 -19 -6 -5 -11 15 -6 15 -7 -3 -18 -16 -11 -18 -10 -14 2 4 11 -1 15
-17 16 -16 0 -19 3 -9 6 69 26 67 25 45 33 -18 8 -18 9 -2 9 10 1 16 5 12 10
-3 5 5 17 17 26 22 16 22 17 2 11 -15 -5 -24 -1 -28 10 -4 9 -4 19 -1 22 3 3
5 0 5 -6 0 -7 4 -12 10 -12 5 0 7 7 4 15 -4 8 -1 15 4 15 6 0 13 -8 15 -17 4
-17 5 -17 6 -1 1 19 -34 42 -49 33 -6 -3 -7 1 -4 10 5 11 1 14 -12 12 -31 -6
-58 -20 -72 -36 -11 -14 -11 -12 -2 7 6 12 8 26 5 31 -3 5 5 7 17 5 21 -4 22
-4 3 5 -11 5 -38 11 -60 12 -27 1 -32 3 -15 6 66 10 71 13 64 35 -4 14 -2 18
5 14 7 -5 10 2 9 18 -1 15 -6 26 -10 26 -5 0 -7 16 -5 35 4 30 1 35 -17 35
-12 0 -26 9 -31 21 -6 12 -30 33 -54 46 -35 20 -46 22 -53 11 -7 -9 -7 -7 -2
7 4 11 8 32 8 48 1 17 5 26 14 22 6 -2 12 0 12 5 0 6 -5 10 -11 10 -6 0 -8 9
-4 20 4 12 2 20 -5 20 -6 0 -8 -6 -4 -12 4 -7 -6 0 -22 16 -16 15 -40 32 -53
37 -15 6 -21 15 -17 24 3 9 0 15 -8 15 -8 0 -16 3 -19 8 -2 4 -2 1 0 -6 2 -8
6 -32 9 -55 4 -28 15 -50 33 -65 21 -20 22 -22 4 -13 -27 14 -36 14 -28 1 3
-5 1 -10 -4 -10 -6 0 -12 7 -12 15 -2 19 -3 24 -17 58 -7 16 -12 32 -12 37 0
5 -5 21 -12 35 -15 34 -27 15 -29 -45 0 -25 -4 -65 -9 -90 -7 -36 -8 -28 -5
42 5 107 -9 119 -57 51 -18 -25 -33 -49 -33 -53 0 -5 -4 -12 -9 -17 -5 -4 -6
-3 -3 3 4 7 0 15 -9 18 -21 8 -24 8 -24 -5 0 -5 5 -7 10 -4 6 3 2 -9 -9 -27
-10 -18 -24 -50 -31 -71 -7 -21 -14 -36 -17 -33 -7 7 29 109 42 118 16 12 -4
9 -28 -3 -19 -10 -18 -7 6 18 15 16 27 40 27 55 0 15 5 30 11 34 8 4 9 -4 4
-27 -6 -30 -5 -32 8 -19 21 22 30 80 12 80 -8 0 -19 -9 -25 -20 -6 -11 -15
-20 -21 -20 -11 0 8 41 25 52 6 4 11 22 12 40 2 19 3 38 4 43 6 30 -4 47 -40
65 -40 20 -52 16 -27 -9 6 -8 0 -6 -15 4 -16 9 -28 14 -28 9 0 -4 -6 1 -14 11
-10 14 -26 20 -53 20 -27 0 -38 4 -38 15 0 9 -9 15 -21 15 -11 0 -29 7 -40 15
-19 14 -19 14 0 -8 14 -16 26 -20 40 -16 12 4 18 3 14 -1 -4 -4 4 -25 18 -46
43 -68 37 -64 -108 68 -21 19 -25 1 -5 -19 7 -7 22 -26 32 -43 19 -30 19 -30
0 -15 -10 8 -32 29 -48 45 -23 24 -26 26 -17 7 6 -12 8 -27 5 -32 -3 -5 1 -7
9 -4 10 4 17 -2 22 -20 3 -15 23 -53 44 -85 43 -67 62 -101 57 -101 -2 0 -21
27 -41 60 -38 62 -65 94 -73 87 -2 -3 6 -21 17 -40 12 -20 19 -41 15 -46 -3
-6 2 -25 12 -43 9 -18 18 -36 19 -40 1 -5 2 -9 4 -10 1 -2 3 -23 5 -48 l3 -45
-14 34 c-17 40 -17 44 -4 36 14 -9 13 -6 -15 49 -14 28 -23 57 -20 66 3 9 -2
25 -11 36 -14 18 -15 18 -4 -4 6 -12 8 -26 6 -31 -3 -5 1 -28 9 -50 16 -47 4
-48 -15 -1 -10 23 -15 28 -22 18 -5 -8 -6 -3 -2 15 3 15 2 27 -3 27 -14 0 -43
67 -37 84 3 8 1 17 -5 21 -7 4 -8 -1 -4 -12 4 -12 3 -15 -4 -8 -5 6 -18 31
-27 57 -10 26 -22 51 -28 54 -5 4 -4 -4 3 -17 11 -22 11 -23 -4 -10 -24 19
-21 7 9 -47 l27 -47 -26 28 c-14 15 -27 24 -30 20 -3 -4 -8 -37 -12 -73 -8
-74 -32 -151 -82 -264 l-35 -78 19 -37 c14 -25 25 -35 39 -33 14 2 16 1 5 -6
-10 -7 -10 -14 -2 -30 6 -11 11 -24 11 -29 0 -10 -39 39 -40 50 0 4 -10 21
-22 38 l-22 30 -11 -43 c-7 -29 -7 -45 0 -50 6 -5 3 -8 -7 -8 -10 0 -18 -5
-18 -12 0 -6 -3 -9 -6 -5 -8 8 22 99 56 167 52 106 82 194 96 284 15 99 16
135 4 96 l-8 -25 -2 25 c-2 21 -4 20 -10 -10 -5 -19 -22 -73 -39 -120 -17 -46
-32 -96 -32 -110 -2 -24 -2 -24 -6 -2 -3 13 10 67 28 120 18 53 35 113 39 133
6 33 5 36 -14 31 -12 -2 -30 -12 -41 -22 -24 -20 -59 -34 -50 -20 3 6 12 10
19 10 8 0 19 7 26 15 9 11 9 15 1 15 -7 0 -10 4 -6 9 3 5 -4 12 -15 16 -11 3
-20 11 -20 16 0 5 -7 9 -16 9 -14 0 -14 -3 -4 -15z m525 -92 c19 -23 35 -44
35 -47 0 -4 -14 9 -31 29 -17 19 -35 32 -40 29 -5 -3 -6 2 -3 11 5 11 2 14
-10 9 -9 -3 -16 -2 -16 4 0 21 31 4 65 -35z m-900 10 c18 -28 18 -28 -2 -10
-11 9 -25 17 -32 17 -7 0 -9 5 -6 10 10 17 22 12 40 -17z m415 -6 c0 -1 -26
-27 -57 -57 l-58 -55 55 58 c50 53 60 62 60 54z m373 -50 c7 3 9 3 5 -1 -3 -4
15 -28 40 -53 l47 -46 -40 28 c-46 33 -115 104 -115 120 0 5 12 -5 26 -23 15
-18 31 -29 37 -25z m91 27 c3 -8 2 -12 -4 -9 -6 3 -10 10 -10 16 0 14 7 11 14
-7z m-564 -19 c-19 -14 -36 -25 -39 -25 -10 0 53 49 63 50 6 0 -5 -11 -24 -25z
m690 -28 c0 -12 0 -11 -24 28 l-17 30 20 -24 c12 -13 21 -28 21 -34z m-1113
17 c-3 -3 -12 -4 -19 -1 -8 3 -5 6 6 6 11 1 17 -2 13 -5z m-2 -24 c3 -5 33
-14 66 -21 80 -16 69 -23 -14 -9 -39 7 -68 18 -71 26 -6 16 9 19 19 4z m268
-42 c14 -24 35 -53 47 -65 11 -13 17 -23 12 -23 -4 0 -18 14 -31 30 -12 17
-27 28 -33 24 -7 -4 -8 -2 -4 5 4 6 1 23 -8 36 -9 13 -16 27 -16 30 0 13 10 2
33 -37z m47 22 c6 -11 8 -20 6 -20 -3 0 -10 9 -16 20 -6 11 -8 20 -6 20 3 0
10 -9 16 -20z m-345 0 c3 -5 1 -10 -4 -10 -6 0 -11 5 -11 10 0 6 2 10 4 10 3
0 8 -4 11 -10z m251 -68 c-3 -3 -6 0 -6 7 0 7 -4 10 -8 7 -4 -2 -8 3 -8 12 -1
9 -4 26 -8 37 -4 11 2 3 14 -18 12 -22 19 -41 16 -45z m-56 38 c8 -5 11 -10 5
-10 -5 0 -17 5 -25 10 -8 5 -10 10 -5 10 6 0 17 -5 25 -10z m908 -76 c1 -1 -5
-7 -15 -15 -12 -10 -15 -10 -9 -1 4 7 2 20 -6 30 -12 16 -11 16 7 2 11 -8 21
-15 23 -16z m-747 -37 c-10 -9 -11 -8 -5 6 3 10 9 15 12 12 3 -3 0 -11 -7 -18z
m1072 -17 c3 -11 2 -18 -3 -15 -4 3 -10 14 -13 25 -3 11 -2 18 3 15 4 -3 10
-14 13 -25z m-1673 -61 c0 -6 -4 -7 -10 -4 -5 3 -10 11 -10 16 0 6 5 7 10 4 6
-3 10 -11 10 -16z m1205 9 c-11 -6 -22 -14 -25 -17 -6 -8 -30 -12 -30 -6 0 6
53 34 65 34 6 0 1 -5 -10 -11z m212 -50 c-3 -7 -5 -2 -5 12 0 14 2 19 5 13 2
-7 2 -19 0 -25z m274 15 c13 -16 12 -17 -3 -4 -10 7 -18 15 -18 17 0 8 8 3 21
-13z m-1066 -65 c4 -13 7 -29 6 -35 -1 -8 5 -10 15 -6 11 4 15 3 10 -5 -3 -6
-2 -13 3 -16 4 -3 9 -17 9 -30 0 -19 -3 -22 -12 -13 -17 18 -37 67 -31 77 3 4
-2 13 -10 20 -17 14 -20 30 -6 30 5 0 12 -10 16 -22z m802 -45 c-3 -10 -5 -2
-5 17 0 19 2 27 5 18 2 -10 2 -26 0 -35z m263 27 c-6 -11 -13 -20 -16 -20 -2
0 0 9 6 20 6 11 13 20 16 20 2 0 0 -9 -6 -20z m-391 -74 c-18 -42 -34 -75 -36
-73 -2 2 10 37 27 78 16 41 30 76 30 78 0 2 3 2 6 -1 3 -3 -9 -40 -27 -82z
m516 24 c3 -6 -1 -7 -9 -4 -18 7 -21 14 -7 14 6 0 13 -4 16 -10z m35 -15 c0
-11 -10 -15 -32 -14 -31 2 -31 2 -5 6 15 2 25 9 22 14 -4 5 -1 9 4 9 6 0 11
-7 11 -15z m-1903 -21 c-3 -3 -12 -4 -19 -1 -8 3 -5 6 6 6 11 1 17 -2 13 -5z
m1870 -36 c-3 -7 -5 -2 -5 12 0 14 2 19 5 13 2 -7 2 -19 0 -25z m-208 -5 c-40
-47 -42 -49 -34 -33 10 19 47 60 53 60 3 0 -5 -12 -19 -27z m-920 -23 c0 -10
-3 -8 -9 5 -12 27 -12 43 0 25 5 -8 9 -22 9 -30z m253 -35 c10 -18 10 -19 -6
-6 -10 8 -24 28 -32 45 l-15 31 21 -25 c11 -14 26 -34 32 -45z m-402 30 c0 -2
-9 -3 -19 -2 -11 0 -18 5 -15 9 4 6 34 0 34 -7z m691 -62 c-12 -20 -14 -14 -5
12 4 9 9 14 11 11 3 -2 0 -13 -6 -23z m-1004 -45 c-3 -8 -6 -5 -6 6 -1 11 2
17 5 13 3 -3 4 -12 1 -19z m209 -151 c5 -32 3 -47 -5 -47 -6 0 -11 11 -11 25
0 14 -4 25 -10 25 -11 0 -14 43 -3 54 12 12 23 -9 29 -57z m-96 44 c0 -15 -45
-18 -58 -4 -11 11 -6 13 23 13 19 0 35 -4 35 -9z m-581 -25 c-10 -9 -69 -36
-69 -32 0 7 52 35 64 36 5 0 7 -2 5 -4z m-24 -66 c3 -5 -3 -10 -15 -10 -12 0
-18 5 -15 10 3 6 10 10 15 10 5 0 12 -4 15 -10z m665 -20 c0 -5 -4 -10 -10
-10 -5 0 -10 5 -10 10 0 6 5 10 10 10 6 0 10 -4 10 -10z m-300 -20 c0 -5 -4
-10 -10 -10 -5 0 -10 5 -10 10 0 6 5 10 10 10 6 0 10 -4 10 -10z m1844 -12
c-3 -4 -12 -8 -20 -8 -8 0 -26 -7 -39 -16 -15 -10 -25 -12 -25 -5 0 6 6 11 14
11 7 0 19 6 25 14 13 15 54 18 45 4z m121 -58 c3 -5 1 -10 -4 -10 -6 0 -11 5
-11 10 0 6 2 10 4 10 3 0 8 -4 11 -10z m-1735 -480 c0 -5 -4 -10 -10 -10 -5 0
-10 5 -10 10 0 6 5 10 10 10 6 0 10 -4 10 -10z m1627 -116 c-3 -3 -12 -4 -19
-1 -8 3 -5 6 6 6 11 1 17 -2 13 -5z m-1547 -314 c0 -13 -7 -20 -20 -20 -13 0
-20 7 -20 20 0 13 7 20 20 20 13 0 20 -7 20 -20z m760 0 c0 -11 -4 -20 -10
-20 -5 0 -10 9 -10 20 0 11 5 20 10 20 6 0 10 -9 10 -20z m865 -30 c-10 -11
-20 -18 -22 -16 -6 5 30 44 36 39 2 -1 -4 -12 -14 -23z m-16 -133 c-2 -2 -17
-11 -34 -21 l-30 -17 24 20 c13 12 28 21 34 21 6 0 8 -1 6 -3z"/>
<path d="M5560 5136 c0 -2 7 -9 15 -16 9 -7 15 -8 15 -2 0 5 -7 12 -15 16 -8
3 -15 4 -15 2z"/>
<path d="M4711 5114 c0 -11 3 -14 6 -6 3 7 2 16 -1 19 -3 4 -6 -2 -5 -13z"/>
<path d="M5697 5033 c-4 -3 -7 -13 -7 -22 1 -13 3 -13 11 2 11 19 8 33 -4 20z"/>
<path d="M5740 5000 c0 -6 7 -10 15 -10 8 0 15 2 15 4 0 2 -7 6 -15 10 -8 3
-15 1 -15 -4z"/>
<path d="M5724 4975 c3 -8 2 -14 -2 -14 -19 3 -25 -2 -13 -10 12 -8 12 -12 2
-25 -7 -8 -11 -23 -9 -34 2 -10 -3 -27 -11 -38 -7 -10 1 -3 18 16 18 19 35 48
38 63 4 17 9 24 13 17 5 -8 9 -8 13 2 3 9 -6 18 -25 26 -25 9 -29 9 -24 -3z"/>
<path d="M4370 4880 c0 -5 5 -10 11 -10 5 0 7 5 4 10 -3 6 -8 10 -11 10 -2 0
-4 -4 -4 -10z"/>
<path d="M4433 4853 c2 -13 7 -26 12 -30 4 -5 5 -2 1 5 -10 17 9 15 23 -2 8
-9 8 -15 1 -18 -5 -1 -1 -9 9 -15 37 -23 31 3 -10 43 -34 33 -39 35 -36 17z"/>
<path d="M6020 4826 c0 -2 8 -10 18 -17 15 -13 16 -12 3 4 -13 16 -21 21 -21
13z"/>
<path d="M4315 4790 c10 -11 20 -18 23 -15 7 6 -18 35 -31 35 -5 0 -2 -9 8
-20z"/>
<path d="M6016 4797 c3 -10 9 -15 12 -12 3 3 0 11 -7 18 -10 9 -11 8 -5 -6z"/>
<path d="M4192 4780 c0 -14 2 -19 5 -12 2 6 2 18 0 25 -3 6 -5 1 -5 -13z"/>
<path d="M4171 4748 c-1 -16 4 -28 9 -28 12 0 12 8 0 35 -8 18 -9 17 -9 -7z"/>
<path d="M6007 4746 c-17 -25 -19 -21 60 -68 37 -22 51 -10 22 20 -11 12 -15
22 -10 22 5 0 13 -4 16 -10 8 -13 25 -13 25 0 0 6 -12 15 -26 20 -16 6 -23 14
-18 22 4 7 4 10 0 6 -5 -4 -18 -3 -31 2 -19 7 -26 5 -38 -14z"/>
<path d="M4147 4723 c-4 -3 -7 -11 -7 -17 0 -6 5 -5 12 2 6 6 9 14 7 17 -3 3
-9 2 -12 -2z"/>
<path d="M4120 4610 c0 -5 5 -10 11 -10 5 0 7 5 4 10 -3 6 -8 10 -11 10 -2 0
-4 -4 -4 -10z"/>
<path d="M6165 4489 c-4 -6 -5 -12 -2 -15 2 -3 7 2 10 11 7 17 1 20 -8 4z"/>
<path d="M6176 4453 c-6 -14 -5 -15 5 -6 7 7 10 15 7 18 -3 3 -9 -2 -12 -12z"/>
<path d="M6200 4459 c0 -5 5 -7 10 -4 6 3 10 8 10 11 0 2 -4 4 -10 4 -5 0 -10
-5 -10 -11z"/>
<path d="M6240 4440 c-9 -6 -10 -10 -3 -10 6 0 15 5 18 10 8 12 4 12 -15 0z"/>
<path d="M4375 4200 c3 -5 8 -10 11 -10 2 0 4 5 4 10 0 6 -5 10 -11 10 -5 0
-7 -4 -4 -10z"/>
<path d="M4592 4156 c1 -15 11 -35 21 -44 19 -17 19 -16 3 22 -21 51 -27 56
-24 22z"/>
<path d="M6230 4087 c-8 -7 -22 -21 -30 -32 -8 -11 0 -7 18 9 29 27 37 37 30
36 -2 0 -10 -6 -18 -13z"/>
<path d="M4466 4081 c-8 -13 61 -88 71 -77 4 4 -5 17 -19 29 -14 12 -30 30
-36 41 -6 12 -12 15 -16 7z"/>
<path d="M4650 4070 c0 -5 5 -10 10 -10 6 0 10 5 10 10 0 6 -4 10 -10 10 -5 0
-10 -4 -10 -10z"/>
<path d="M6239 4063 c-13 -16 -12 -17 4 -4 9 7 17 15 17 17 0 8 -8 3 -21 -13z"/>
<path d="M4370 4021 c0 -6 4 -13 10 -16 6 -3 7 1 4 9 -7 18 -14 21 -14 7z"/>
<path d="M4210 3960 c0 -5 5 -10 10 -10 6 0 10 5 10 10 0 6 -4 10 -10 10 -5 0
-10 -4 -10 -10z"/>
<path d="M4046 3846 c10 -8 21 -12 24 -10 5 6 -21 24 -34 24 -6 0 -1 -6 10
-14z"/>
<path d="M3958 3843 c7 -3 16 -2 19 1 4 3 -2 6 -13 5 -11 0 -14 -3 -6 -6z"/>
<path d="M3995 3840 c-3 -5 1 -10 10 -10 9 0 13 5 10 10 -3 6 -8 10 -10 10 -2
0 -7 -4 -10 -10z"/>
<path d="M4080 3826 c0 -2 7 -7 16 -10 8 -3 12 -2 9 4 -6 10 -25 14 -25 6z"/>
<path d="M6336 3683 c-6 -14 -5 -15 5 -6 7 7 10 15 7 18 -3 3 -9 -2 -12 -12z"/>
<path d="M3890 3679 c0 -5 4 -8 9 -5 5 4 12 0 14 -6 3 -8 6 -6 6 5 1 9 -6 17
-14 17 -8 0 -15 -5 -15 -11z"/>
<path d="M3940 3596 c0 -2 8 -10 18 -17 15 -13 16 -12 3 4 -13 16 -21 21 -21
13z"/>
<path d="M3790 3443 c0 -5 10 -18 23 -29 l22 -19 -20 25 c-11 14 -21 27 -22
29 -2 2 -3 0 -3 -6z"/>
<path d="M3763 3386 c4 -10 7 -29 7 -43 0 -15 3 -23 7 -20 3 4 12 2 20 -4 7
-6 13 -8 13 -4 0 4 -7 13 -17 20 -9 7 -13 17 -8 25 6 10 9 9 16 -1 4 -7 11
-11 14 -7 3 3 -8 16 -26 29 -28 19 -32 20 -26 5z"/>
<path d="M5440 3030 c0 -5 5 -10 10 -10 6 0 10 5 10 10 0 6 -4 10 -10 10 -5 0
-10 -4 -10 -10z"/>
<path d="M3586 2892 c-4 -7 3 -24 18 -40 14 -15 34 -38 46 -52 l21 -25 -12 25
c-7 13 -17 30 -23 37 -25 28 -33 40 -38 53 -3 11 -6 11 -12 2z"/>
<path d="M3451 2694 c0 -11 3 -14 6 -6 3 7 2 16 -1 19 -3 4 -6 -2 -5 -13z"/>
<path d="M3500 2635 c1 -26 2 -28 11 -12 8 14 8 22 0 30 -8 8 -11 3 -11 -18z"/>
<path d="M3527 2623 c-11 -10 -8 -43 4 -43 5 0 7 -4 4 -10 -13 -21 21 -96 60
-135 22 -22 49 -53 59 -69 33 -51 97 -115 111 -110 8 4 15 -5 20 -24 3 -16 16
-38 28 -48 24 -21 63 -44 73 -44 11 0 -3 74 -26 138 -19 52 -26 62 -46 62 -21
0 -24 -5 -24 -36 0 -21 -4 -33 -10 -29 -5 3 -10 19 -10 35 0 24 -21 52 -102
140 -57 61 -110 126 -119 145 -9 19 -19 32 -22 28z"/>
<path d="M6413 2612 c-8 -5 -9 -13 -3 -22 7 -12 10 -12 16 3 8 21 3 29 -13 19z"/>
<path d="M3901 2215 c0 -33 2 -68 5 -78 6 -19 80 -61 94 -52 5 3 15 -3 22 -13
7 -10 20 -21 28 -25 10 -4 8 -6 -7 -6 -13 -1 -23 -4 -23 -8 0 -5 35 -41 77
-82 46 -43 73 -75 66 -78 -19 -7 -16 -22 15 -59 15 -19 39 -49 55 -68 15 -18
27 -38 27 -43 0 -12 50 -58 71 -66 16 -5 59 -82 59 -105 0 -7 5 -12 11 -12 6
0 40 -29 75 -65 41 -42 75 -68 95 -72 16 -3 34 -14 40 -25 6 -10 33 -30 62
-44 29 -13 70 -34 91 -45 37 -19 90 -33 177 -46 40 -5 119 13 119 27 0 6 11
10 25 10 42 0 75 41 75 95 0 25 -4 45 -10 45 -5 0 -10 9 -10 20 0 11 -4 20
-10 20 -5 0 -10 7 -10 15 0 9 -9 15 -24 15 -37 0 -56 10 -56 31 0 10 -4 19
-10 19 -5 0 -10 7 -10 15 0 8 -4 15 -10 15 -5 0 -10 -7 -10 -15 0 -8 -4 -15
-10 -15 -5 0 -10 9 -10 20 0 12 -7 20 -16 20 -8 0 -22 7 -31 15 -8 9 -28 19
-44 22 -16 3 -29 9 -29 14 0 5 -13 9 -30 9 -16 0 -30 -4 -30 -10 0 -5 -18 -10
-40 -10 -33 0 -40 3 -40 20 0 13 -7 20 -20 20 -11 0 -20 6 -20 13 0 7 -9 19
-20 27 -11 8 -20 20 -20 26 0 13 -45 24 -99 24 -40 0 -75 18 -53 27 21 8 14
35 -8 28 -14 -5 -20 -2 -20 9 0 9 -9 16 -20 16 -16 0 -20 7 -20 30 0 17 -4 30
-9 30 -12 0 -71 56 -71 67 0 6 -11 15 -25 21 -14 7 -25 20 -25 31 0 21 -9 30
-37 36 -26 6 -107 36 -113 41 -2 3 2 9 9 13 21 13 -17 50 -59 57 -19 4 -42 10
-52 15 -11 6 -18 4 -22 -8 -6 -14 -8 -14 -21 3 -8 10 -15 27 -15 36 0 11 -10
18 -27 20 -22 2 -31 11 -40 38 -11 35 -11 34 -12 -25z"/>
<path d="M4560 1775 c0 -10 10 -15 30 -15 20 0 30 5 30 15 0 10 -10 15 -30 15
-20 0 -30 -5 -30 -15z"/>
</g>
</svg>
